<svg width="4" height="7" viewBox="0 0 4 7" fill="none" xmlns="http://www.w3.org/2000/svg">
<path d="M2.24291 6.48525C2.81113 6.48525 3.25269 6.27151 3.56592 5.8445C3.80393 5.53127 3.91796 5.03779 3.91796 4.37252V2.1807C3.91796 1.51156 3.80417 1.02244 3.56592 0.706302C3.25269 0.278079 2.81137 0.0643311 2.24291 0.0643311C1.67761 0.0643311 1.23628 0.278079 0.922335 0.706302C0.681414 1.02244 0.567383 1.51156 0.567383 2.1807V4.37252C0.567383 5.03779 0.681414 5.53127 0.922335 5.8445C1.23604 6.27151 1.67761 6.48525 2.24291 6.48525ZM1.70163 1.95337C1.70163 1.37423 1.87729 1.08552 2.24291 1.08552C2.60854 1.08552 2.78371 1.37399 2.78371 1.95337V4.58627C2.78371 5.1654 2.60854 5.45509 2.24291 5.45509C1.87729 5.45509 1.70163 5.1654 1.70163 4.58627V1.95337Z" fill="#273043"/>
</svg>
