<svg width="22" height="20" viewBox="0 0 22 20" fill="none" xmlns="http://www.w3.org/2000/svg">
<path d="M18.7889 0.379534C15.7382 0.268618 13.6776 2.01762 12.5904 5.59903C13.1496 5.34878 13.6932 5.23695 14.2193 5.23695C15.3368 5.23695 15.8308 5.87587 15.6988 7.14545C15.6328 7.91453 15.1415 9.03287 14.2212 10.5041C13.2963 11.9754 12.6051 12.7124 12.1449 12.7124C10.7498 12.7124 9.911 6.03537 9.62683 4.21212C9.23175 1.67753 8.1785 0.492284 6.46708 0.658201C4.89592 0.807618 2.15417 3.63645 0 5.55412L1.03492 6.90345C2.02033 6.20495 2.59508 5.85478 2.75917 5.85478C4.47425 5.85478 5.30475 11.6912 6.63667 16.0316C7.53042 18.4269 8.602 19.625 9.89358 19.625C11.9689 19.625 14.4971 17.6596 17.4928 13.7271C20.3848 9.96237 21.8827 6.99512 21.9789 4.83087L21.9908 4.8217C22.1137 1.92045 21.0549 0.435451 18.7889 0.379534Z" fill="#273043"/>
</svg>
